<svg width="525" height="42" viewBox="0 0 525 42" fill="none" xmlns="http://www.w3.org/2000/svg">
<path d="M17 -2.38419e-06C20.9333 -2.38419e-06 24.1667 1.5 26.7 4.5C29.2667 7.5 30.55 11.3167 30.55 15.95C30.55 21.35 28.8833 26.0167 25.55 29.95L32.15 37.8L27.2 41.45L21.45 33.45C19.1167 34.85 16.65 35.55 14.05 35.55C10.2167 35.55 7 34.0167 4.4 30.95C1.8 27.85 0.5 24.0333 0.5 19.5C0.5 13.8333 2.05 9.16667 5.15 5.5C8.25 1.83333 12.2 -2.38419e-06 17 -2.38419e-06ZM23.75 18.75C23.75 10.3167 20.9833 6.1 15.45 6.1C12.9167 6.1 10.9167 7.05 9.45 8.95C8.01667 10.8167 7.3 13.6333 7.3 17.4C7.3 21.1333 8.06667 24.2167 9.6 26.65C11.1667 29.05 13.3 30.25 16 30.25C17 30.25 17.9333 30.05 18.8 29.65L12.85 21.3L16.3 18.9L22.3 26.05C23.2667 24.0167 23.75 21.5833 23.75 18.75ZM160.311 -2.38419e-06C164.244 -2.38419e-06 167.477 1.5 170.011 4.5C172.577 7.5 173.861 11.3167 173.861 15.95C173.861 21.8167 172.344 26.55 169.311 30.15C166.277 33.75 162.294 35.55 157.361 35.55C153.527 35.55 150.311 34.0167 147.711 30.95C145.111 27.85 143.811 24.0333 143.811 19.5C143.811 13.8333 145.361 9.16667 148.461 5.5C151.561 1.83333 155.511 -2.38419e-06 160.311 -2.38419e-06ZM167.061 18.75C167.061 10.3167 164.294 6.1 158.761 6.1C156.227 6.1 154.227 7.05 152.761 8.95C151.327 10.8167 150.611 13.6333 150.611 17.4C150.611 21.1333 151.377 24.2167 152.911 26.65C154.477 29.05 156.527 30.25 159.061 30.25C161.627 30.25 163.594 29.2333 164.961 27.2C166.361 25.1333 167.061 22.3167 167.061 18.75ZM375.427 21.7H372.577V22L373.177 35H366.477L367.077 22.85L366.477 0.499997H377.327C380.527 0.499997 383.077 1.36666 384.977 3.1C386.877 4.83333 387.827 7.13333 387.827 10C387.827 12.1667 387.26 14.15 386.127 15.95C385.027 17.7167 383.527 19.1167 381.627 20.15L390.327 32.45L384.277 35.55L376.477 21.65C376.243 21.6833 375.893 21.7 375.427 21.7ZM375.527 5.55H373.077L372.727 16.85H376.127C377.793 16.85 379.077 16.3 379.977 15.2C380.91 14.1 381.377 12.5333 381.377 10.5C381.377 7.2 379.427 5.55 375.527 5.55ZM524.358 0.249997L523.658 22L524.258 35H517.258L517.858 22.85L517.258 1.5L524.358 0.249997Z" fill="#92FC57"/>
<path d="M47.5344 35.55C44.5344 35.55 42.001 34.6333 39.9344 32.8C37.901 30.9667 36.8844 28.7 36.8844 26L36.3844 1.5L43.5844 0.249997L42.7844 22.15C42.7844 24.4833 43.3177 26.3 44.3844 27.6C45.4844 28.9 47.1677 29.55 49.4344 29.55C51.701 29.55 53.3344 28.9167 54.3344 27.65C55.3344 26.3833 55.8344 24.2 55.8344 21.1L55.2344 1.5L62.2344 0.249997L61.6844 22.25C61.6844 26.1833 60.3677 29.3833 57.7344 31.85C55.101 34.3167 51.701 35.55 47.5344 35.55ZM193.867 19.4H194.367L201.667 0.399998L208.567 0.599999L208.767 22.1L209.717 35H202.967L203.217 22L202.667 8.85L196.667 25.4L190.517 25.7L184.917 8.85L184.467 22L184.817 35H178.617L179.317 22.85L179.617 1.4L187.567 0.149999L193.867 19.4ZM438.776 35.25L436.326 25.5H424.376L421.726 35L415.326 34.5L419.726 22.35L426.426 0.849999L435.376 0.199998L441.826 21.6L445.976 34.15L438.776 35.25ZM430.876 6.7H430.226L425.926 20.2H434.826L430.876 6.7Z" fill="#1B39D3"/>
<path d="M69.5527 35L70.1527 22.85L69.5527 0.499997H88.3027L87.7527 5.85H76.5027L76.2027 14.7H86.2027L85.6527 20H76.0027L75.9527 22L76.3027 29.7H88.4027L87.8527 35H69.5527ZM235.865 6.25L236.415 0.499997H260.165L259.615 6.25L250.915 5.5L250.715 22L251.315 35H244.315L244.915 22.85L244.715 5.55L235.865 6.25ZM322.736 28.75H323.336L325.836 20.15L331.086 0.199998L337.136 1.1L331.186 20.95L327.286 34.6L318.036 35.25L314.486 21.9L308.686 1.45L315.786 0.199998L320.336 19.5L322.736 28.75ZM464.705 -2.38419e-06C468.638 -2.38419e-06 471.872 1.5 474.405 4.5C476.972 7.5 478.255 11.3167 478.255 15.95C478.255 21.35 476.588 26.0167 473.255 29.95L479.855 37.8L474.905 41.45L469.155 33.45C466.822 34.85 464.355 35.55 461.755 35.55C457.922 35.55 454.705 34.0167 452.105 30.95C449.505 27.85 448.205 24.0333 448.205 19.5C448.205 13.8333 449.755 9.16667 452.855 5.5C455.955 1.83333 459.905 -2.38419e-06 464.705 -2.38419e-06ZM471.455 18.75C471.455 10.3167 468.688 6.1 463.155 6.1C460.622 6.1 458.622 7.05 457.155 8.95C455.722 10.8167 455.005 13.6333 455.005 17.4C455.005 21.1333 455.772 24.2167 457.305 26.65C458.872 29.05 461.005 30.25 463.705 30.25C464.705 30.25 465.638 30.05 466.505 29.65L460.555 21.3L464.005 18.9L470.005 26.05C470.972 24.0167 471.455 21.5833 471.455 18.75Z" fill="#E82E19"/>
<path d="M128.157 0.499997C131.357 0.499997 133.89 1.23333 135.757 2.7C137.623 4.13333 138.557 6.06666 138.557 8.5C138.557 12.4 136.957 15.1167 133.757 16.65C138.09 18.15 140.257 20.9167 140.257 24.95C140.257 27.9833 138.957 30.5167 136.357 32.55C133.757 34.55 130.49 35.55 126.557 35.55C124.49 35.55 121.407 35.3667 117.307 35L117.907 22.85L117.307 0.499997H128.157ZM127.507 20.15H123.457L123.407 22L123.757 30.15C125.69 30.3167 127.173 30.4 128.207 30.4C129.973 30.4 131.34 29.9667 132.307 29.1C133.307 28.2 133.807 26.9 133.807 25.2C133.807 23.5 133.307 22.2333 132.307 21.4C131.307 20.5667 129.707 20.15 127.507 20.15ZM126.357 5.55H123.907L123.607 15.3H126.857C128.557 15.3 129.857 14.85 130.757 13.95C131.657 13.0167 132.107 11.7 132.107 10C132.107 7.03333 130.19 5.55 126.357 5.55ZM264.182 35L264.782 22.85L264.182 0.499997H282.932L282.382 5.85H271.132L270.832 14.7H280.832L280.282 20H270.632L270.582 22L270.932 29.7H283.032L282.482 35H264.182ZM341.867 35L342.467 22.85L341.867 0.499997H360.617L360.067 5.85H348.817L348.517 14.7H358.517L357.967 20H348.317L348.267 22L348.617 29.7H360.717L360.167 35H341.867ZM495.239 35.55C492.239 35.55 489.706 34.6333 487.639 32.8C485.606 30.9667 484.589 28.7 484.589 26L484.089 1.5L491.289 0.249997L490.489 22.15C490.489 24.4833 491.023 26.3 492.089 27.6C493.189 28.9 494.873 29.55 497.139 29.55C499.406 29.55 501.039 28.9167 502.039 27.65C503.039 26.3833 503.539 24.2 503.539 21.1L502.939 1.5L509.939 0.249997L509.389 22.25C509.389 26.1833 508.073 29.3833 505.439 31.85C502.806 34.3167 499.406 35.55 495.239 35.55Z" fill="#FDEF3E"/>
</svg>
