<svg width="591" height="52" viewBox="0 0 591 52" fill="none" xmlns="http://www.w3.org/2000/svg">
<path d="M17 10C20.9333 10 24.1667 11.5 26.7 14.5C29.2667 17.5 30.55 21.3167 30.55 25.95C30.55 31.35 28.8833 36.0167 25.55 39.95L32.15 47.8L27.2 51.45L21.45 43.45C19.1167 44.85 16.65 45.55 14.05 45.55C10.2167 45.55 7 44.0167 4.4 40.95C1.8 37.85 0.5 34.0333 0.5 29.5C0.5 23.8333 2.05 19.1667 5.15 15.5C8.25 11.8333 12.2 10 17 10ZM23.75 28.75C23.75 20.3167 20.9833 16.1 15.45 16.1C12.9167 16.1 10.9167 17.05 9.45 18.95C8.01667 20.8167 7.3 23.6333 7.3 27.4C7.3 31.1333 8.06667 34.2167 9.6 36.65C11.1667 39.05 13.3 40.25 16 40.25C17 40.25 17.9333 40.05 18.8 39.65L12.85 31.3L16.3 28.9L22.3 36.05C23.2667 34.0167 23.75 31.5833 23.75 28.75ZM160.311 10C164.244 10 167.477 11.5 170.011 14.5C172.577 17.5 173.861 21.3167 173.861 25.95C173.861 31.8167 172.344 36.55 169.311 40.15C166.277 43.75 162.294 45.55 157.361 45.55C153.527 45.55 150.311 44.0167 147.711 40.95C145.111 37.85 143.811 34.0333 143.811 29.5C143.811 23.8333 145.361 19.1667 148.461 15.5C151.561 11.8333 155.511 10 160.311 10ZM167.061 28.75C167.061 20.3167 164.294 16.1 158.761 16.1C156.227 16.1 154.227 17.05 152.761 18.95C151.327 20.8167 150.611 23.6333 150.611 27.4C150.611 31.1333 151.377 34.2167 152.911 36.65C154.477 39.05 156.527 40.25 159.061 40.25C161.627 40.25 163.594 39.2333 164.961 37.2C166.361 35.1333 167.061 32.3167 167.061 28.75ZM303.356 31.7H300.506V32L301.106 45H294.406L295.006 32.85L294.406 10.5H305.256C308.456 10.5 311.006 11.3667 312.906 13.1C314.806 14.8333 315.756 17.1333 315.756 20C315.756 22.1667 315.19 24.15 314.056 25.95C312.956 27.7167 311.456 29.1167 309.556 30.15L318.256 42.45L312.206 45.55L304.406 31.65C304.173 31.6833 303.823 31.7 303.356 31.7ZM303.456 15.55H301.006L300.656 26.85H304.056C305.723 26.85 307.006 26.3 307.906 25.2C308.84 24.1 309.306 22.5333 309.306 20.5C309.306 17.2 307.356 15.55 303.456 15.55ZM446.983 7.45L439.783 3.2L440.533 0.0999969L446.983 2.45L453.533 0.0999969L454.283 3.2L446.983 7.45ZM437.033 45L437.633 32.85L437.033 10.5H455.783L455.233 15.85H443.983L443.683 24.7H453.683L453.133 30H443.483L443.433 32L443.783 39.7H455.883L455.333 45H437.033ZM590.569 10.25L589.869 32L590.469 45H583.469L584.069 32.85L583.469 11.5L590.569 10.25Z" fill="#92FC57"/>
<path d="M47.5344 45.55C44.5344 45.55 42.001 44.6333 39.9344 42.8C37.901 40.9667 36.8844 38.7 36.8844 36L36.3844 11.5L43.5844 10.25L42.7844 32.15C42.7844 34.4833 43.3177 36.3 44.3844 37.6C45.4844 38.9 47.1677 39.55 49.4344 39.55C51.701 39.55 53.3344 38.9167 54.3344 37.65C55.3344 36.3833 55.8344 34.2 55.8344 31.1L55.2344 11.5L62.2344 10.25L61.6844 32.25C61.6844 36.1833 60.3677 39.3833 57.7344 41.85C55.101 44.3167 51.701 45.55 47.5344 45.55ZM193.867 29.4H194.367L201.667 10.4L208.567 10.6L208.767 32.1L209.717 45H202.967L203.217 32L202.667 18.85L196.667 35.4L190.517 35.7L184.917 18.85L184.467 32L184.817 45H178.617L179.317 32.85L179.617 11.4L187.567 10.15L193.867 29.4ZM357.306 38.75H357.906L360.406 30.15L365.656 10.2L371.706 11.1L365.756 30.95L361.856 44.6L352.606 45.25L349.056 31.9L343.256 11.45L350.356 10.2L354.906 29.5L357.306 38.75ZM504.987 45.25L502.537 35.5H490.587L487.937 45L481.537 44.5L485.937 32.35L492.637 10.85L501.587 10.2L508.037 31.6L512.187 44.15L504.987 45.25ZM497.087 16.7H496.437L492.137 30.2H501.037L497.087 16.7Z" fill="#1B39D3"/>
<path d="M69.5527 45L70.1527 32.85L69.5527 10.5H88.3027L87.7527 15.85H76.5027L76.2027 24.7H86.2027L85.6527 30H76.0027L75.9527 32L76.3027 39.7H88.4027L87.8527 45H69.5527ZM250.665 38.75H251.265L253.765 30.15L259.015 10.2L265.065 11.1L259.115 30.95L255.215 44.6L245.965 45.25L242.415 31.9L236.615 11.45L243.715 10.2L248.265 29.5L250.665 38.75ZM390.438 10C394.371 10 397.604 11.5 400.138 14.5C402.704 17.5 403.988 21.3167 403.988 25.95C403.988 31.8167 402.471 36.55 399.438 40.15C396.404 43.75 392.421 45.55 387.488 45.55C383.654 45.55 380.438 44.0167 377.838 40.95C375.238 37.85 373.938 34.0333 373.938 29.5C373.938 23.8333 375.488 19.1667 378.588 15.5C381.688 11.8333 385.638 10 390.438 10ZM397.188 28.75C397.188 20.3167 394.421 16.1 388.888 16.1C386.354 16.1 384.354 17.05 382.888 18.95C381.454 20.8167 380.738 23.6333 380.738 27.4C380.738 31.1333 381.504 34.2167 383.038 36.65C384.604 39.05 386.654 40.25 389.188 40.25C391.754 40.25 393.721 39.2333 395.088 37.2C396.488 35.1333 397.188 32.3167 397.188 28.75ZM530.916 10C534.849 10 538.083 11.5 540.616 14.5C543.183 17.5 544.466 21.3167 544.466 25.95C544.466 31.35 542.799 36.0167 539.466 39.95L546.066 47.8L541.116 51.45L535.366 43.45C533.033 44.85 530.566 45.55 527.966 45.55C524.133 45.55 520.916 44.0167 518.316 40.95C515.716 37.85 514.416 34.0333 514.416 29.5C514.416 23.8333 515.966 19.1667 519.066 15.5C522.166 11.8333 526.116 10 530.916 10ZM537.666 28.75C537.666 20.3167 534.899 16.1 529.366 16.1C526.833 16.1 524.833 17.05 523.366 18.95C521.933 20.8167 521.216 23.6333 521.216 27.4C521.216 31.1333 521.983 34.2167 523.516 36.65C525.083 39.05 527.216 40.25 529.916 40.25C530.916 40.25 531.849 40.05 532.716 39.65L526.766 31.3L530.216 28.9L536.216 36.05C537.183 34.0167 537.666 31.5833 537.666 28.75Z" fill="#E82E19"/>
<path d="M128.157 10.5C131.357 10.5 133.89 11.2333 135.757 12.7C137.623 14.1333 138.557 16.0667 138.557 18.5C138.557 22.4 136.957 25.1167 133.757 26.65C138.09 28.15 140.257 30.9167 140.257 34.95C140.257 37.9833 138.957 40.5167 136.357 42.55C133.757 44.55 130.49 45.55 126.557 45.55C124.49 45.55 121.407 45.3667 117.307 45L117.907 32.85L117.307 10.5H128.157ZM127.507 30.15H123.457L123.407 32L123.757 40.15C125.69 40.3167 127.173 40.4 128.207 40.4C129.973 40.4 131.34 39.9667 132.307 39.1C133.307 38.2 133.807 36.9 133.807 35.2C133.807 33.5 133.307 32.2333 132.307 31.4C131.307 30.5667 129.707 30.15 127.507 30.15ZM126.357 15.55H123.907L123.607 25.3H126.857C128.557 25.3 129.857 24.85 130.757 23.95C131.657 23.0167 132.107 21.7 132.107 20C132.107 17.0333 130.19 15.55 126.357 15.55ZM269.797 45L270.397 32.85L269.797 10.5H288.547L287.997 15.85H276.747L276.447 24.7H286.447L285.897 30H276.247L276.197 32L276.547 39.7H288.647L288.097 45H269.797ZM420.144 45.55C416.444 45.55 413.327 44 410.794 40.9C408.261 37.8 406.994 34 406.994 29.5C406.994 24 408.511 19.3667 411.544 15.6C414.611 11.8333 418.361 9.95 422.794 9.95C424.527 9.95 426.127 10.1333 427.594 10.5C429.094 10.8333 430.161 11.1833 430.794 11.55L431.694 12.1L428.294 19.05C427.527 18.3833 426.444 17.7667 425.044 17.2C423.644 16.6 422.377 16.3 421.244 16.3C418.944 16.3 417.094 17.25 415.694 19.15C414.327 21.05 413.644 23.7667 413.644 27.3C413.644 30.8 414.361 33.6833 415.794 35.95C417.227 38.1833 419.177 39.3 421.644 39.3C423.244 39.3 424.694 38.8 425.994 37.8C427.294 36.8 428.211 35.4667 428.744 33.8L432.894 36.2C431.794 39.1333 430.111 41.4333 427.844 43.1C425.577 44.7333 423.011 45.55 420.144 45.55ZM561.45 45.55C558.45 45.55 555.917 44.6333 553.85 42.8C551.817 40.9667 550.8 38.7 550.8 36L550.3 11.5L557.5 10.25L556.7 32.15C556.7 34.4833 557.234 36.3 558.3 37.6C559.4 38.9 561.084 39.55 563.35 39.55C565.617 39.55 567.25 38.9167 568.25 37.65C569.25 36.3833 569.75 34.2 569.75 31.1L569.15 11.5L576.15 10.25L575.6 32.25C575.6 36.1833 574.284 39.3833 571.65 41.85C569.017 44.3167 565.617 45.55 561.45 45.55Z" fill="#FDEF3E"/>
</svg>
