<?xml version="1.0" encoding="utf-8"?>
<svg id="master-artboard" viewBox="0 0 345.96087646484375 333.2566223144531" version="1.0" xmlns="http://www.w3.org/2000/svg" x="0px" y="0px" width="345.96087646484375px" height="333.2566223144531px" enable-background="new 0 0 1400 980"><rect id="ee-background" x="0" y="0" width="345.96087646484375" height="333.2566223144531" style="fill: white; fill-opacity: 0; pointer-events: none;"/>

<g id="XMLID_48_" transform="matrix(1, 0, 0, 1, -147.8941421508789, -496.5017395019531)">
	
	
	<g id="XMLID_2_" transform="matrix(1, 0, 0, 1, -2.347525908575392, -25.822784994329595)">
		<path id="XMLID_65_" fill="#2D74B6" d="M362.5,590.9c-0.1-0.2-0.3-0.3-0.4-0.5s-0.3-0.3-0.5-0.4c-0.4-0.3-0.7-0.5-1.1-0.8&#10;&#9;&#9;&#9;c-1.1-0.7-2.2-1.4-3.2-1.9c0,0-0.1,0-0.1-0.1c0,0,0,0,0,0c-0.5-0.3-1-0.5-1.5-0.7c-1.9-0.9-3.9-1.5-5.8-1.9&#10;&#9;&#9;&#9;c-0.2-0.1-0.5-0.1-0.7-0.1c-0.6-0.1-1.2-0.2-1.9-0.3c0,0,0,0,0,0c-0.6-0.1-1.1-0.1-1.7-0.1c-0.5,0-1,0-1.5,0&#10;&#9;&#9;&#9;c-0.6,0-1.3,0.1-1.9,0.1c-0.1,0-0.1,0-0.2,0c-0.8,0.1-1.7,0.2-2.5,0.4c-0.4,0.1-0.7,0.2-1,0.2c-0.3,0.1-0.5,0.1-0.8,0.2&#10;&#9;&#9;&#9;c-0.5,0.2-1.1,0.3-1.6,0.5c-0.1,0-0.1,0-0.2,0.1c-0.4,0.1-0.7,0.3-1.1,0.4c-0.3,0.1-0.6,0.3-0.9,0.4c-0.5,0.2-0.9,0.5-1.4,0.7&#10;&#9;&#9;&#9;c-0.1,0-0.1,0.1-0.2,0.1c-0.8,0.5-1.5,1-2.2,1.5c0,0,0,0,0,0c-0.3,0.2-0.5,0.4-0.7,0.6c-2.6,2.1-6.4,0.4-6.4-2.9v0V585l0,0&#10;&#9;&#9;&#9;c0,0-2.7-5.2-8.2-12.1c-8.2-10.4-22.7-24.9-43.5-32.1c-3-1-6.1-1.9-9.4-2.6c2.4,7.3,1.4,16.1-4.8,24.6c-0.2,0.3-0.5,0.6-0.9,0.9&#10;&#9;&#9;&#9;c-19.6,14.5-41,0.8-41-17.9c0-1.5,0.1-3,0.4-4.4c-3,1-5.9,2.1-8.6,3.3c-36.4,16.2-47.5,51.1-50.6,73.6&#10;&#9;&#9;&#9;c-1.4,10.4-1.2,18.1-0.9,20.1c0.4,2.8-0.8,17.7,8.4,42c0.4,1,0.8,2.1,1.2,3.2c1.1,2.7,2.3,5.5,3.6,8.4h48.9c0.6,0,1.2-0.1,1.7-0.4&#10;&#9;&#9;&#9;c2.1-1,3-4,1.2-6c-3.4-4.1-5.4-9.4-5.4-15.1c0-5.4,1.8-11.3,6-17.1c0.2-0.3,0.5-0.6,0.9-0.9c19.6-14.5,41-0.8,41,17.9c0,0,0,0,0,0&#10;&#9;&#9;&#9;c0,0,0,0,0,0c0,5.8-2,11-5.4,15.2c-1.7,2.1-0.9,5,1.2,6c0.5,0.2,1.1,0.4,1.7,0.4h58.5c0,0,0,0,0,0c2.1,0,3.8-1.8,3.8-3.9v-58.5v0&#10;&#9;&#9;&#9;c0-3.3,3.8-5,6.4-2.9c0.1,0.1,0.2,0.2,0.3,0.2c1.5,1.2,3.1,2.2,4.8,3c0.2,0.1,0.5,0.2,0.7,0.3c0.4,0.2,0.8,0.3,1.2,0.5&#10;&#9;&#9;&#9;c0.1,0,0.2,0.1,0.3,0.1c1.2,0.4,2.4,0.8,3.7,1c0.3,0.1,0.6,0.1,1,0.1c1.1,0.1,2.2,0.2,3.3,0.2c2.9,0,5.7-0.5,8.3-1.5&#10;&#9;&#9;&#9;c1-0.4,2-0.8,3-1.4c1-0.5,1.9-1.1,2.8-1.7c0.9-0.6,1.7-1.3,2.5-2.1c0.4-0.4,0.8-0.8,1.1-1.2c0.7-0.8,1.4-1.6,2-2.5&#10;&#9;&#9;&#9;c1.2-1.8,2.2-3.7,3-5.8c0.9-2.6,1.4-5.4,1.3-8.4C368.4,602.1,366.6,596.4,362.5,590.9z"/>
		<path id="XMLID_63_" fill="#FFF200" d="M319.2,691.8C319.2,691.8,319.2,691.8,319.2,691.8l-58.6,0c-0.6,0-1.2-0.1-1.7-0.4&#10;&#9;&#9;&#9;c-2.1-1-3-3.9-1.3-6c3.4-4.1,5.4-9.4,5.4-15.2c0,0,0,0,0,0c0-18.7-21.4-32.4-41-17.9c-0.3,0.2-0.6,0.5-0.9,0.9&#10;&#9;&#9;&#9;c-4.2,5.7-6,11.6-6,17.1c0,5.8,2,11,5.4,15.2c1.7,2.1,0.9,5-1.3,6c-0.5,0.2-1.1,0.4-1.7,0.4h-48.9c0,0,0,0,0,0&#10;&#9;&#9;&#9;c1.3,2.8,2.7,5.6,4.3,8.6c18.9,35.7,58.5,84.6,141.6,141.2c2.7,1.9,5.5,3.8,8.4,5.6c0,0,0,0,0,0v-50.1c0-3.3-3.8-5-6.4-2.9&#10;&#9;&#9;&#9;c-4.1,3.4-9.4,5.4-15.2,5.4c-13.4,0-24.3-11.1-23.9-24.6c0.1-5.3,2-11,6-16.5c0.2-0.3,0.5-0.6,0.9-0.9c11.8-8.7,24.2-7.2,32.2-0.6&#10;&#9;&#9;&#9;c2.6,2.1,6.4,0.4,6.4-2.9v-58.5v0C323,693.6,321.3,691.9,319.2,691.8z"/>
		<path id="XMLID_61_" fill="#ED1C24" d="M489.6,618.3c-3.5-25.3-17-66.4-65.4-78.8c-48.4-12.4-79.1,15.7-92.8,33.1&#10;&#9;&#9;&#9;c-5.6,7.1-8.4,12.3-8.4,12.4v1.5v0c0,3.3,3.8,5,6.4,2.9c0.2-0.2,0.5-0.4,0.7-0.6c0,0,0,0,0,0c0.7-0.5,1.5-1,2.2-1.5&#10;&#9;&#9;&#9;c0.1,0,0.1-0.1,0.2-0.1c0.5-0.3,0.9-0.5,1.4-0.7c0.3-0.1,0.6-0.3,0.9-0.4c0.4-0.2,0.7-0.3,1.1-0.4c0.1,0,0.1,0,0.2-0.1&#10;&#9;&#9;&#9;c0.5-0.2,1-0.4,1.6-0.5c0.3-0.1,0.5-0.1,0.8-0.2c0.3-0.1,0.7-0.2,1-0.2c0.8-0.2,1.6-0.3,2.5-0.4c0.1,0,0.1,0,0.2,0&#10;&#9;&#9;&#9;c0.6-0.1,1.3-0.1,1.9-0.1c0.5,0,1,0,1.5,0c0.6,0,1.1,0.1,1.7,0.1c0,0,0,0,0,0c0.6,0.1,1.2,0.2,1.9,0.3c0.2,0,0.5,0.1,0.7,0.1&#10;&#9;&#9;&#9;c1.9,0.4,3.8,1,5.8,1.9c0.5,0.2,1,0.5,1.5,0.7c0,0,0,0,0,0c0,0,0.1,0,0.1,0.1c1.1,0.6,2.2,1.2,3.2,1.9c0.4,0.3,0.7,0.5,1.1,0.8&#10;&#9;&#9;&#9;c0.2,0.1,0.3,0.3,0.5,0.4c0.1,0.1,0.3,0.3,0.4,0.5c4.1,5.5,5.9,11.2,6,16.5c0,0.7,0,1.5,0,2.2c-0.1,2.2-0.6,4.2-1.2,6.2&#10;&#9;&#9;&#9;c-0.7,2.1-1.7,4.1-3,5.8c-0.6,0.9-1.3,1.7-2,2.5c-0.4,0.4-0.7,0.8-1.1,1.2c-0.8,0.7-1.6,1.4-2.5,2.1c-0.9,0.6-1.8,1.2-2.8,1.7&#10;&#9;&#9;&#9;c-1,0.5-2,1-3,1.4c-2.6,1-5.4,1.5-8.3,1.5c-1.1,0-2.2-0.1-3.3-0.2c-0.3,0-0.6-0.1-1-0.1c-1.3-0.2-2.5-0.6-3.7-1&#10;&#9;&#9;&#9;c-0.1,0-0.2-0.1-0.3-0.1c-0.4-0.1-0.8-0.3-1.2-0.5c-0.2-0.1-0.5-0.2-0.7-0.3c-1.7-0.8-3.3-1.8-4.8-3c-0.1-0.1-0.2-0.2-0.3-0.2&#10;&#9;&#9;&#9;c-2.6-2.1-6.4-0.4-6.4,2.9v0V688v0c0,2.1,1.7,3.9,3.9,3.9h58.5h0c3.3,0,5,3.8,2.9,6.4c-0.4,0.5-0.8,1-1.2,1.6c0,0,0,0,0,0&#10;&#9;&#9;&#9;c-0.4,0.5-0.7,1.1-1,1.7c0,0,0,0.1,0,0.1c-0.3,0.6-0.6,1.1-0.9,1.7c0,0,0,0.1-0.1,0.1c-0.3,0.6-0.5,1.1-0.7,1.7&#10;&#9;&#9;&#9;c0,0.1,0,0.1-0.1,0.2c-0.2,0.6-0.4,1.2-0.6,1.8c0,0.1,0,0.1-0.1,0.2c-0.2,0.6-0.3,1.2-0.4,1.8c0,0.1,0,0.1,0,0.2&#10;&#9;&#9;&#9;c-0.1,0.6-0.2,1.2-0.2,1.8c0,0.1,0,0.2,0,0.2c-0.1,0.6-0.1,1.3-0.1,1.9c0,0.1,0,0.2,0,0.3c0,0.5,0,1,0.1,1.5c0,0,0,0.1,0,0.1&#10;&#9;&#9;&#9;c0,0.5,0.1,1.1,0.2,1.6c0,0,0,0,0,0c1.5,10.5,9.9,18.8,20.4,20.3c0.2,0,0.4,0.1,0.6,0.1c0.3,0,0.6,0.1,0.9,0.1&#10;&#9;&#9;&#9;c0.3,0,0.6,0,0.9,0.1c0.3,0,0.6,0,0.9,0c0.3,0,0.6,0,0.9,0c0.3,0,0.6,0,0.9-0.1c0.3,0,0.6,0,0.9-0.1c0.2,0,0.4-0.1,0.6-0.1&#10;&#9;&#9;&#9;c10.5-1.5,18.9-9.8,20.4-20.3c0,0,0,0,0,0c0.1-0.5,0.1-1.1,0.2-1.6c0,0,0-0.1,0-0.1c0-0.5,0.1-1,0.1-1.5c0-0.1,0-0.2,0-0.3&#10;&#9;&#9;&#9;c0-0.6,0-1.3-0.1-1.9c0-0.1,0-0.2,0-0.2c-0.1-0.6-0.1-1.2-0.2-1.8c0-0.1,0-0.2,0-0.2c-0.1-0.6-0.2-1.2-0.4-1.8&#10;&#9;&#9;&#9;c0-0.1,0-0.1-0.1-0.2c-0.2-0.6-0.4-1.2-0.6-1.8c0-0.1,0-0.1-0.1-0.2c-0.2-0.6-0.5-1.2-0.7-1.7c0,0,0-0.1-0.1-0.1&#10;&#9;&#9;&#9;c-0.3-0.6-0.6-1.1-0.9-1.7c0,0,0-0.1-0.1-0.1c-0.3-0.6-0.7-1.1-1-1.6c0,0,0,0,0-0.1c-0.4-0.5-0.8-1.1-1.2-1.6c0,0,0,0,0,0&#10;&#9;&#9;&#9;c-2.1-2.6-0.4-6.4,2.9-6.4h0h48.9c1.4-2.9,2.6-5.7,3.7-8.4c0.5-1.3,1-2.5,1.4-3.7c9-24,7.8-38.7,8.2-41.5&#10;&#9;&#9;&#9;C490.8,636.3,491.1,628.6,489.6,618.3z"/>
		
			<linearGradient id="XMLID_53_" gradientUnits="userSpaceOnUse" x1="1406.1722" y1="1130.4271" x2="1405.9213" y2="1130.1831" gradientTransform="matrix(4.489700e-11 -1 1 4.489700e-11 -844.3972 2181.7429)">
			<stop offset="0" style="stop-color:#628F3E"/>
			<stop offset="1" style="stop-color:#628F3E;stop-opacity:0"/>
		</linearGradient>
		<path d="M 285.8999938964844 775.7000122070312 L 285.8999938964844 775.7000122070312 L 285.8999938964844 775.7000122070312 Z" id="XMLID_258_" fill="url(#XMLID_53_)"/>
		<path id="XMLID_62_" fill="#8CC240" d="M428.4,691.8L428.4,691.8c-3.3,0-5.1,3.8-3,6.4c0,0,0,0,0,0c0.4,0.5,0.8,1,1.2,1.6&#10;&#9;&#9;&#9;c0,0,0,0,0,0.1c0.4,0.5,0.7,1.1,1,1.6c0,0,0,0.1,0.1,0.1c0.3,0.5,0.6,1.1,0.9,1.7c0,0,0,0.1,0.1,0.1c0.3,0.6,0.5,1.1,0.7,1.7&#10;&#9;&#9;&#9;c0,0.1,0,0.1,0.1,0.2c0.2,0.6,0.4,1.2,0.6,1.8c0,0.1,0,0.1,0.1,0.2c0.2,0.6,0.3,1.2,0.4,1.8c0,0.1,0,0.2,0,0.2&#10;&#9;&#9;&#9;c0.1,0.6,0.2,1.2,0.2,1.8c0,0.1,0,0.2,0,0.2c0.1,0.6,0.1,1.2,0.1,1.9c0,0.1,0,0.2,0,0.3c0,0.5,0,1-0.1,1.5c0,0,0,0.1,0,0.1&#10;&#9;&#9;&#9;c0,0.5-0.1,1.1-0.2,1.6c0,0,0,0,0,0c-0.6,4.4-2.4,9.1-5.8,13.6c-0.2,0.3-0.5,0.6-0.9,0.9c-4.6,3.4-9.3,5.2-13.8,5.8&#10;&#9;&#9;&#9;c-0.2,0-0.4,0.1-0.6,0.1c-0.3,0-0.6,0.1-0.9,0.1c-0.3,0-0.6,0-0.9,0.1c-0.3,0-0.6,0-0.9,0c-0.3,0-0.6,0-0.9,0&#10;&#9;&#9;&#9;c-0.3,0-0.6,0-0.9-0.1c-0.3,0-0.6,0-0.9-0.1c-0.2,0-0.4-0.1-0.6-0.1c-10.5-1.5-18.9-9.8-20.4-20.3c0,0,0,0,0,0&#10;&#9;&#9;&#9;c-0.1-0.5-0.1-1.1-0.2-1.6c0,0,0-0.1,0-0.1c0-0.5-0.1-1-0.1-1.5c0-0.1,0-0.1,0-0.2c0,0,0-0.1,0-0.1c0-0.6,0-1.3,0.1-1.9&#10;&#9;&#9;&#9;c0-0.1,0-0.2,0-0.2c0.1-0.6,0.1-1.2,0.2-1.8c0-0.1,0-0.1,0-0.2c0.1-0.6,0.2-1.2,0.4-1.8c0-0.1,0-0.1,0.1-0.2&#10;&#9;&#9;&#9;c0.2-0.6,0.4-1.2,0.6-1.8c0-0.1,0-0.1,0.1-0.2c0.2-0.6,0.5-1.2,0.7-1.7c0,0,0-0.1,0.1-0.1c0.3-0.6,0.6-1.1,0.9-1.7&#10;&#9;&#9;&#9;c0,0,0-0.1,0-0.1c0.3-0.6,0.7-1.1,1-1.7c0,0,0,0,0,0c0.4-0.5,0.8-1.1,1.2-1.6c2.1-2.6,0.4-6.4-2.9-6.4h0h-58.5h0&#10;&#9;&#9;&#9;c-2.1,0-3.9,1.7-3.9,3.9v58.5v0c0,3.3-3.8,5-6.4,2.9c-8-6.6-20.4-8.1-32.2,0.6c-0.3,0.2-0.6,0.5-0.9,0.9c-4.1,5.5-5.9,11.2-6,16.5&#10;&#9;&#9;&#9;c-0.3,13.5,10.5,24.6,23.9,24.6c5.8,0,11-2,15.2-5.4c2.6-2.1,6.4-0.4,6.4,2.9v50.1c2.8-1.9,5.6-3.8,8.4-5.6&#10;&#9;&#9;&#9;c83.2-56.7,122.8-105.7,141.7-141.4c1.5-2.9,2.9-5.7,4.2-8.4H428.4z"/>
	</g>
	
	
	
</g>
<path d="M 282.8308410644531 360.2991943359375 L 671.3463745117188 361.47296142578125" style="fill: rgb(255, 255, 255); fill-opacity: 1; stroke: rgb(0, 0, 0); stroke-opacity: 1; stroke-width: 0; paint-order: fill;" transform="matrix(1, 0, 0, 1, -178.41197204589844, -106.81243133544922)"/><path d="M 429.55120849609375 220.62139892578125 L 426.0299377441406 217.10011291503906" style="fill: rgb(255, 255, 255); fill-opacity: 1; stroke: rgb(0, 0, 0); stroke-opacity: 1; stroke-width: 0; paint-order: fill;" transform="matrix(1, 0, 0, 1, -178.41197204589844, -106.81243133544922)"/></svg>